<?xml version="1.0"?>
<svg xmlns="http://www.w3.org/2000/svg" viewBox="0 0 50 50">
    <path style="line-height:normal;text-indent:0;text-align:start;text-decoration-line:none;text-decoration-style:solid;text-decoration-color:#000;text-transform:none;block-progression:tb;isolation:auto;mix-blend-mode:normal" d="M 13.599609 4 C 8.8620649 4 5 7.8620649 5 12.599609 L 5 31.400391 L 5 38.400391 C 5 43.137935 8.8620649 47 13.599609 47 L 36.400391 47 C 41.137935 47 45 43.137935 45 38.400391 L 45 30.599609 L 45 12.599609 C 45 7.8620649 41.137935 4 36.400391 4 L 13.599609 4 z M 25.390625 14.955078 C 30.011625 14.955078 30.353516 18.760063 30.353516 19.539062 C 30.353516 24.988062 22.566672 25.681562 22.138672 29.226562 L 30.267578 29.226562 L 30.267578 30.955078 L 20 30.955078 C 20 24.209078 28.472656 24.382062 28.472656 19.539062 C 28.472656 19.107063 28.129625 16.685547 25.390625 16.685547 C 22.481625 16.685547 22.310547 20.145062 22.310547 20.664062 L 20.427734 20.664062 C 20.342734 18.848063 20.769625 14.955078 25.390625 14.955078 z M 7 36.902344 C 8.5794631 38.792759 10.952573 40 13.599609 40 L 36.400391 40 C 39.047427 40 41.420537 38.792759 43 36.902344 L 43 38.400391 C 43 42.056846 40.056846 45 36.400391 45 L 13.599609 45 C 9.9431546 45 7 42.056846 7 38.400391 L 7 36.902344 z" font-weight="400" font-family="sans-serif" white-space="normal" overflow="visible"/>
</svg>
