<?xml version="1.0"?>
<svg xmlns="http://www.w3.org/2000/svg" viewBox="0 0 50 50">
    <path style="line-height:normal;text-indent:0;text-align:start;text-decoration-line:none;text-decoration-style:solid;text-decoration-color:#000;text-transform:none;block-progression:tb;isolation:auto;mix-blend-mode:normal" d="M 13.599609 4 C 8.8620649 4 5 7.8620649 5 12.599609 L 5 31.400391 L 5 38.400391 C 5 43.137935 8.8620649 47 13.599609 47 L 36.400391 47 C 41.137935 47 45 43.137935 45 38.400391 L 45 30.599609 L 45 12.599609 C 45 7.8620649 41.137935 4 36.400391 4 L 13.599609 4 z M 25.052734 14 C 29.648734 14 29.818359 17.488922 29.818359 18.169922 C 29.818359 19.956922 28.287406 20.978359 27.691406 21.318359 L 27.691406 21.404297 C 28.627406 21.574297 30.5 22.426375 30.5 25.234375 C 30.5 29.745375 26.074672 30 25.138672 30 C 20.338672 30 19.964266 26.227 19.947266 25 L 21.828125 25 C 21.881125 27.467 23.629672 28.382812 25.138672 28.382812 C 25.563672 28.382812 28.542969 28.126359 28.542969 25.318359 C 28.542969 22.424359 25.647656 22.339844 25.222656 22.339844 C 24.797656 22.339844 24.457187 22.340781 24.117188 22.425781 L 24.117188 20.808594 L 24.882812 20.808594 C 27.606813 20.808594 27.861328 18.681859 27.861328 18.255859 C 27.861328 17.404859 27.520734 15.701172 25.052734 15.701172 C 22.416734 15.701172 22.104172 18.326 22.076172 19 L 20.203125 19 C 20.226125 18.022 20.623734 14 25.052734 14 z M 7 36.902344 C 8.5794631 38.792759 10.952573 40 13.599609 40 L 36.400391 40 C 39.047427 40 41.420537 38.792759 43 36.902344 L 43 38.400391 C 43 42.056846 40.056846 45 36.400391 45 L 13.599609 45 C 9.9431546 45 7 42.056846 7 38.400391 L 7 36.902344 z" font-weight="400" font-family="sans-serif" white-space="normal" overflow="visible"/>
</svg>
