<?xml version="1.0"?>
<svg xmlns="http://www.w3.org/2000/svg" viewBox="0 0 50 50">
    <path style="line-height:normal;text-indent:0;text-align:start;text-decoration-line:none;text-decoration-style:solid;text-decoration-color:#000;text-transform:none;block-progression:tb;isolation:auto;mix-blend-mode:normal" d="M 13.599609 4 C 8.8620649 4 5 7.8620649 5 12.599609 L 5 31.400391 L 5 38.400391 C 5 43.137935 8.8620649 47 13.599609 47 L 36.400391 47 C 41.137935 47 45 43.137935 45 38.400391 L 45 30.599609 L 45 12.599609 C 45 7.8620649 41.137935 4 36.400391 4 L 13.599609 4 z M 22 14.855469 L 29.800781 14.855469 L 29.800781 16.556641 L 23.300781 16.755859 L 22.400391 21.355469 L 22.5 21.455078 C 22.8 21.055078 23.599391 20.355469 25.400391 20.355469 C 30.199391 20.355469 30.599609 24.955859 30.599609 25.755859 C 30.599609 30.055859 26.900609 30.955078 25.099609 30.955078 C 20.899609 30.955078 20 27.656422 20 26.357422 L 21.800781 26.357422 C 21.800781 28.256422 23.699219 29.15625 25.199219 29.15625 C 28.400219 29.15625 28.599609 26.056422 28.599609 25.357422 C 28.599609 22.156422 25.8 21.755859 25 21.755859 C 23.4 21.755859 22.399609 22.755859 22.099609 23.255859 L 20.5 23.15625 L 22 14.855469 z M 7 36.902344 C 8.5794631 38.792759 10.952573 40 13.599609 40 L 36.400391 40 C 39.047427 40 41.420537 38.792759 43 36.902344 L 43 38.400391 C 43 42.056846 40.056846 45 36.400391 45 L 13.599609 45 C 9.9431546 45 7 42.056846 7 38.400391 L 7 36.902344 z" font-weight="400" font-family="sans-serif" white-space="normal" overflow="visible"/>
</svg>
