<?xml version="1.0"?>
<svg xmlns="http://www.w3.org/2000/svg" viewBox="0 0 50 50">
    <path style="line-height:normal;text-indent:0;text-align:start;text-decoration-line:none;text-decoration-style:solid;text-decoration-color:#000;text-transform:none;block-progression:tb;isolation:auto;mix-blend-mode:normal" d="M 13.599609 4 C 8.8620649 4 5 7.8620649 5 12.599609 L 5 31.400391 L 5 38.400391 C 5 43.137935 8.8620649 47 13.599609 47 L 36.400391 47 C 41.137935 47 45 43.137935 45 38.400391 L 45 30.599609 L 45 12.599609 C 45 7.8620649 41.137935 4 36.400391 4 L 13.599609 4 z M 25.818359 14.955078 C 29.478359 14.955078 30.174625 17.663078 30.265625 18.955078 L 28.382812 18.955078 C 28.292813 18.094078 27.855422 16.496094 25.732422 16.496094 C 21.882422 16.496094 21.882812 21.885375 21.882812 22.484375 L 21.96875 22.570312 C 22.39675 21.886312 23.423297 20.517578 25.904297 20.517578 C 30.439297 20.517578 30.697313 24.881391 30.695312 25.650391 C 30.695313 27.704391 29.583625 30.955078 25.390625 30.955078 C 23.166625 30.955078 20 30.015734 20 23.427734 C 20 22.314734 19.914359 14.955078 25.818359 14.955078 z M 25.5625 22.058594 C 22.4825 22.144594 22.3125 25.224344 22.3125 25.652344 C 22.3125 28.561344 24.5355 29.160156 25.5625 29.160156 C 28.2145 29.160156 28.728516 26.764344 28.728516 25.652344 C 28.728516 25.138344 28.5575 22.058594 25.5625 22.058594 z M 7 36.902344 C 8.5794631 38.792759 10.952573 40 13.599609 40 L 36.400391 40 C 39.047427 40 41.420537 38.792759 43 36.902344 L 43 38.400391 C 43 42.056846 40.056846 45 36.400391 45 L 13.599609 45 C 9.9431546 45 7 42.056846 7 38.400391 L 7 36.902344 z" font-weight="400" font-family="sans-serif" white-space="normal" overflow="visible"/>
</svg>
